<svg width="29" height="29" viewBox="0 0 29 29" fill="none" xmlns="http://www.w3.org/2000/svg">
<path fill-rule="evenodd" clip-rule="evenodd" d="M14.5 29C22.5081 29 29 22.5081 29 14.5C29 6.49187 22.5081 0 14.5 0C6.49187 0 0 6.49187 0 14.5C0 22.5081 6.49187 29 14.5 29ZM9.34884 9C6.39476 9 4 11.3948 4 14.3488C4 17.3029 6.39476 19.6977 9.34884 19.6977C11.561 19.6977 13.458 18.3552 14.2724 16.4419H17.4884V18.0698C17.4884 18.4551 17.8007 18.7674 18.186 18.7674H20.5116C20.8969 18.7674 21.2093 18.4551 21.2093 18.0698V16.4419H23.3023C23.6876 16.4419 24 16.1295 24 15.7442V13.4186C24 12.5195 23.2712 11.7907 22.3721 11.7907H14.0473C13.1407 10.129 11.3773 9 9.34884 9ZM7.48837 14.3488C7.48837 13.3213 8.32133 12.4884 9.34884 12.4884C10.3763 12.4884 11.2093 13.3213 11.2093 14.3488C11.2093 15.3763 10.3763 16.2093 9.34884 16.2093C8.32133 16.2093 7.48837 15.3763 7.48837 14.3488Z" fill="white"/>
</svg>
